<svg xmlns="http://www.w3.org/2000/svg" xmlns:xlink="http://www.w3.org/1999/xlink" version="1.1" x="0px" y="0px" viewBox="0 0 100 125" style="enable-background:new 0 0 100 100;" xml:space="preserve"><style type="text/css">
	.st0{fill:#231F20;}
</style><path d="M72.790535,59.3500366c-1.3099976-6.210022-3.8699951-13.8099976-8.6300049-14.6799927  c-0.1899986-0.0400391-0.6699791-0.1300049-1.2499962-0.1300049c-1.2099609,0-2.1900024,0.3800049-2.8399658,1.0999756  c-1.3400269,1.4899902-0.6799927,3.710022-0.5400391,4.1400146l0.0800171,0.25l0.2000122,0.1699829  c3.0999756,2.8099976,5.299984,6.2000122,6.3800011,9.8099976c1.9099731,6.4000244,0.9799805,8.7000122-0.1300049,9.5  c-0.2700195,0.2000122-0.5900269,0.3400269-0.9500122,0.4199829c-1.7000084,0.4000244-3.4999962-0.8799438-3.8900108-2.6899414  c-0.75-3.4700317-1.6799927-6.9300537-2.789978-10.3100586c-1.5100098-4.5899658-3.3599854-9.1099854-5.5100098-13.4499512  c1.4799805-1.1799927,4.5499878-4.1600342,4.5599976-8.7600098c0.0100098-3.0200195-1.3099976-5.2999878-2.2799683-6.5700073  l1.6499634-10.460022l-7.8200073,5.9299927c-1.3699951-0.6099854-3.3399658-1.2299805-5.7199707-1.2299805  c-0.4800415,0-0.960022,0.0300293-1.4400024,0.0800171c-1.7600098,0.1900024-3.5,0.7299805-5.0800171,1.5800171  l-7.3300171-6.8700562L30.9405632,28.5c-0.8600464,1.2200317-2.0599976,3.4500122-2.1300049,6.3600464  c-0.0599976,2.4099731,0.5100098,4.5,1.6699829,6.2199707c1.2999878,1.9100342,3.039978,2.8800049,4.2999878,3.5900269  c0.5100098,0.289978,1.2800293,0.7199707,1.3800049,0.8699951c-0.039978,0.0599976-0.2299805,0.2199707-0.3900146,0.3499756  c-0.4099731,0.3400269-0.9799805,0.8099976-1.5999756,1.6500244c-0.8499756,1.1599731-1.4099731,2.5299683-1.6799927,4.0700073  l-0.1799927,11.4699707c-0.0800171,4.8800049-2.6799927,8.5800171-4.8900146,10.8599854  c-1.0599976,1.1300049-1.5800171,2.7800293-1.3800049,4.4299927c0.1900024,1.5599976,1,2.9000244,2.210022,3.6800537  c0.7799683,0.5,1.7099609,0.7699585,2.6900024,0.7699585c0.7799683,0,1.5799561-0.1699829,2.3099976-0.4899902  c1.1300049-0.5,2.4699707-0.7399902,4.0799561-0.7399902h20.3400269c1.7999878,0,3.4099731-1.210022,3.9400024-2.9799805  c0.25-0.8400269,1-1.4400024,1.8499756-1.4900513c2.6400108-0.1599731,6.2800255-0.9599609,8.6300011-3.8499756  C74.9805374,69.7300415,74.0605545,65.3800049,72.790535,59.3500366z M42.0605583,35.3200073  c-0.6600342,2.0599976-2.6099854,3.5-4.7300415,3.5c-0.6199951,0-1.2099609-0.1300049-1.75-0.3699951  c-2.0999756-0.9199829-3.1999512-3.4599609-2.5199585-5.789978l0.2799683-0.960022l9.0300293,2.6400146L42.0605583,35.3200073z   M50.9605217,38.4500122c-0.539978,0.2399902-1.1300049,0.3699951-1.75,0.3699951c-2.1199951,0-4.0699463-1.4400024-4.7299805-3.5  l-0.3099976-0.9799805l9.0300293-2.6400146l0.2799683,0.960022C54.1705437,34.9900513,53.0605583,37.5300293,50.9605217,38.4500122z  "/><text x="0" y="115" fill="#000000" font-size="5px" font-weight="bold" font-family="'Helvetica Neue', Helvetica, Arial-Unicode, Arial, Sans-serif">Created by DinosoftLab</text><text x="0" y="120" fill="#000000" font-size="5px" font-weight="bold" font-family="'Helvetica Neue', Helvetica, Arial-Unicode, Arial, Sans-serif">from the Noun Project</text></svg>