<svg xmlns="http://www.w3.org/2000/svg" xmlns:xlink="http://www.w3.org/1999/xlink" version="1.1" x="0px" y="0px" viewBox="1.2 99 487.7 517.5" style="enable-background:new 1.2 99 487.7 414;" xml:space="preserve"><g><path d="M462.5,381.1c17.5-34.4,26.4-71.7,26.4-110.6c0-64-24.6-124.5-69.3-170.3c-0.8-0.8-1.8-1.2-2.9-1.2H73.4   c-1.1,0-2.1,0.4-2.9,1.2C25.8,146,1.2,206.5,1.2,270.5c0,38.9,8.9,76.1,26.4,110.6c15.1,29.6,36.4,56.2,62.1,77.4   c-5.9,0.8-11.4,3.4-15.7,7.8c-5.2,5.1-8,12-8,19.3c0,15.1,12.3,27.4,27.4,27.4h303.2c15,0,27.3-12.3,27.2-27.3   c0-13.8-10.2-25.2-23.4-27.1C426,437.3,447.4,410.8,462.5,381.1z M75.1,107h339.8c20.2,21,36.1,45.2,47.4,72H27.7   C38.8,152.6,54.7,128.2,75.1,107z M415.9,485.6c0,10.7-8.7,19.4-19.4,19.4H93.4c-9.3,0-17.1-6.6-19-15.4H245c2.2,0,4-1.8,4-4   s-1.8-4-4-4H74.4c0.8-3.6,2.6-7,5.3-9.7c3.7-3.7,8.6-5.7,13.7-5.7h7.3h288.6h7.2C407.2,466.2,415.9,474.9,415.9,485.6z    M387.9,458.2H102.1c-59-45.1-92.9-113.4-92.8-187.7c0-28.9,5.2-57.1,15.2-83.5h441.2c10,26.4,15.2,54.6,15.2,83.5   C480.8,344.8,446.9,413.1,387.9,458.2z"/><path d="M352.2,284.9c-0.4-0.2-0.9-0.3-1.3-0.3c-15.4-7.2-33.1-12.3-52-15.1c-0.3-0.3-0.7-0.6-1.2-0.8l-57.6-25   c-1.2-0.6-2.7-0.4-3.8,0.3c-1.1,0.7-1.8,2-1.8,3.3v22.3c-34.6,5.2-65,18.6-84.7,37.3l-55.1-23.9c-1.3-0.6-2.7-0.4-3.8,0.3   c-1.1,0.7-1.8,2-1.8,3.3v80.5c0,1.3,0.7,2.6,1.8,3.3c0.7,0.5,1.4,0.7,2.2,0.7c0.5,0,1.1-0.2,1.7-0.3l46.4-20.1l6.6-2.8   c19.7,19.7,50.9,33.8,86.7,39.3v21.1c0,1.3,0.7,2.6,1.8,3.3c0.7,0.5,1.4,0.7,2.2,0.7c0.6,0,1.1-0.1,1.8-0.5l46.4-20.1l8.9-3.8   c25.2-3.3,48.3-10.8,67-21.6c0.4-0.2,0.8-0.5,1.2-0.7c0.7-0.4,1.4-0.8,2.1-1.3c0.8-0.5,1.5-0.9,2.2-1.4c0.4-0.3,0.8-0.5,1.2-0.8   c1-0.7,2.1-1.4,3.1-2.1c0.1-0.1,0.2-0.2,0.4-0.2c3.6-2.5,6.9-5.2,10-7.9c0,0,0.1-0.1,0.1-0.1c0.9-0.8,1.9-1.7,2.7-2.6   c0.2-0.2,0.5-0.4,0.7-0.7c0.7-0.7,1.4-1.4,2.1-2.1c0.3-0.3,0.6-0.6,0.8-0.9c0.6-0.7,1.2-1.3,1.8-2c0.3-0.3,0.5-0.6,0.8-0.9   c0.6-0.7,1.2-1.4,1.8-2.1c0.2-0.3,0.4-0.5,0.6-0.8c0.7-0.9,1.4-1.8,2-2.7c0.1-0.1,0.1-0.1,0.2-0.2c1.5-2.1,2.9-4.3,4.2-6.6   c0.7-1.2,0.7-2.7,0-3.9C391.1,309.8,374.4,295.5,352.2,284.9z M392.3,328.5c-7.8,12.7-20.7,24-37.4,33   c-6.9-10.9-10.6-23.3-10.6-36.3c0-10.9,2.6-21.7,7.7-31.3C370.2,303.1,384,315,392.3,328.5z M242.5,253.4l32,13.9   c-10.7-0.4-21.5,0-32,1.2V253.4z M97.1,361v-68.3l46.8,20.3c-0.1,0.2-0.3,0.3-0.4,0.5c-0.4,0.5-0.8,1-1.2,1.4   c-0.4,0.5-0.9,1.1-1.3,1.6c-2.5,3.2-4.8,6.5-6.8,10c-0.7,1.2-0.7,2.7,0,3.9c2.2,3.9,4.8,7.6,7.7,11.1L97.1,361z M142.5,328.5   c2.9-4.9,6.7-9.5,11-13.9c0.2-0.2,0.3-0.4,0.4-0.6c19-18.8,49.7-32.2,84.9-37c0.1,0,0.1,0,0.2,0.1c18.2-2.4,37.5-2.5,55.9-0.1   c0.3,0.1,0.7,0.1,1,0c17.8,2.4,34.4,7,48.9,13.4c-5.6,10.7-8.6,22.7-8.6,34.8c0,14.2,3.9,28,11.4,39.9c-19.9,9.2-43.9,15-69.6,16.3   c-0.4,0-0.7,0-1.1,0c-1.3,0.1-2.6,0.1-3.9,0.1c-1.9,0-3.8,0.1-5.7,0.1c-2.1,0-4.1,0-6.2-0.1c-0.9,0-1.8-0.1-2.8-0.1   c-0.9,0-1.9-0.1-2.8-0.1C204.9,378.6,160.6,358.2,142.5,328.5z M242.5,402.2v-13.8c9.4,1,19.2,1.5,28.8,1.3L242.5,402.2z"/><path d="M364.3,342.7c8.3,0,15.1-6.7,15.1-15.1c0-8.3-6.8-15.1-15.1-15.1c-8.3,0-15.1,6.8-15.1,15.1   C349.2,335.9,356,342.7,364.3,342.7z M364.3,320.6c3.9,0,7.1,3.1,7.1,7.1c0,3.9-3.2,7.1-7.1,7.1c-3.9,0-7.1-3.2-7.1-7.1   C357.2,323.8,360.4,320.6,364.3,320.6z"/><path d="M395,205c-14.4,0-26.2,11.8-26.2,26.3s11.7,26.3,26.2,26.3s26.2-11.8,26.2-26.3S409.5,205,395,205z M395,249.6   c-10,0-18.2-8.2-18.2-18.3c0-10.1,8.1-18.3,18.2-18.3c10.1,0,18.2,8.2,18.2,18.3C413.2,241.4,405.1,249.6,395,249.6z"/><path d="M154.9,260.5c10.5,0,19-8.5,19.1-19.1c0-10.5-8.6-19.1-19.1-19.1s-19,8.6-19,19.1C135.9,252,144.4,260.5,154.9,260.5z    M154.9,230.4c6.1,0,11,5,11.1,11.1c0,6.1-5,11.1-11.1,11.1c-6,0-11-5-11-11.1C143.9,235.4,148.8,230.4,154.9,230.4z"/></g><text x="1.2" y="528" fill="#000000" font-size="5px" font-weight="bold" font-family="'Helvetica Neue', Helvetica, Arial-Unicode, Arial, Sans-serif">Created by ibrandify</text><text x="1.2" y="533" fill="#000000" font-size="5px" font-weight="bold" font-family="'Helvetica Neue', Helvetica, Arial-Unicode, Arial, Sans-serif">from the Noun Project</text></svg>