<svg xmlns="http://www.w3.org/2000/svg" xmlns:xlink="http://www.w3.org/1999/xlink" version="1.1" x="0px" y="0px" viewBox="0 0 100 125" style="enable-background:new 0 0 100 100;" xml:space="preserve"><g><path d="M65.158,46.279c4.871,0,8.833-3.962,8.833-8.833c0-4.87-3.962-8.832-8.833-8.832c-4.87,0-8.832,3.962-8.832,8.832   C56.326,42.317,60.288,46.279,65.158,46.279z M65.158,32.214c2.885,0,5.233,2.347,5.233,5.232s-2.348,5.233-5.233,5.233   s-5.232-2.348-5.232-5.233S62.273,32.214,65.158,32.214z"/><path d="M36.005,28.615c-4.871,0-8.833,3.962-8.833,8.832c0,4.871,3.962,8.833,8.833,8.833c4.87,0,8.832-3.962,8.832-8.833   C44.837,32.577,40.875,28.615,36.005,28.615z M36.005,42.68c-2.885,0-5.233-2.348-5.233-5.233s2.348-5.232,5.233-5.232   s5.232,2.347,5.232,5.232S38.891,42.68,36.005,42.68z"/><path d="M24.809,22.583c-2.534,4.377-3.993,9.452-3.993,14.864v52.873c0,1.104,0.896,2,2,2H50.66   c16.37,0,29.688-13.318,29.688-29.688V37.447c0-5.411-1.459-10.485-3.993-14.863c4.42-1.413,7.632-5.557,7.632-10.44   c0-1.104-0.896-2-2-2s-2,0.896-2,2c0,3.526-2.637,6.44-6.042,6.893C68.49,12.128,60.048,7.681,50.582,7.681   c-9.466,0-17.907,4.447-23.363,11.355c-3.403-0.453-6.038-3.367-6.038-6.892c0-1.104-0.896-2-2-2s-2,0.896-2,2   C17.18,17.026,20.39,21.169,24.809,22.583z M50.583,48.75c1.104,0,2-0.896,2-2v-3.103c0-15.442,8.019-18.418,19.508-20.361   c2.686,4.067,4.256,8.933,4.256,14.161c0,14.208-11.559,25.766-25.766,25.766c-14.207,0-25.766-11.559-25.766-25.766   c0-5.228,1.57-10.095,4.256-14.162c11.491,1.944,19.512,4.918,19.512,20.362v3.103C48.583,47.854,49.479,48.75,50.583,48.75z    M24.816,52.322c5.154,8.892,14.769,14.891,25.766,14.891c0.993,0,1.974-0.051,2.942-0.147   c-2.113,12.102-12.777,21.253-25.308,21.253h-3.4V52.322z M76.348,62.631c0,14.165-11.523,25.688-25.688,25.688h-7.62   c7.829-4.543,13.455-12.557,14.634-21.967c7.959-1.953,14.666-7.114,18.674-14.03V62.631z M50.582,11.681   c7.351,0,13.988,3.099,18.686,8.054c-8.149,1.585-15.335,4.327-18.685,12.286c-3.35-7.96-10.538-10.701-18.688-12.287   C36.595,14.78,43.231,11.681,50.582,11.681z"/><path d="M69.912,68.284c-0.347,1.177-0.805,2.33-1.364,3.426c-0.502,0.984-0.11,2.188,0.874,2.69   c0.291,0.148,0.601,0.219,0.907,0.219c0.728,0,1.43-0.399,1.783-1.092c0.671-1.316,1.222-2.7,1.637-4.113   c0.312-1.06-0.294-2.171-1.354-2.483C71.334,66.616,70.223,67.224,69.912,68.284z"/><path d="M65.785,75.796c-0.841,0.964-1.776,1.852-2.78,2.638c-0.87,0.681-1.023,1.938-0.342,2.808   c0.394,0.504,0.982,0.767,1.576,0.767c0.431,0,0.865-0.139,1.231-0.425c1.203-0.941,2.323-2.004,3.329-3.158   c0.726-0.833,0.64-2.096-0.193-2.822C67.774,74.877,66.51,74.964,65.785,75.796z"/><path d="M58.563,81.071c-1.407,0.605-2.886,1.048-4.398,1.316c-1.087,0.193-1.813,1.23-1.62,2.318   c0.172,0.969,1.015,1.651,1.967,1.651c0.116,0,0.233-0.01,0.352-0.031c1.814-0.321,3.592-0.854,5.282-1.581   c1.014-0.437,1.483-1.613,1.046-2.628C60.754,81.103,59.577,80.635,58.563,81.071z"/><circle cx="36.005" cy="37.447" r="2.813"/><circle cx="65.158" cy="37.447" r="2.813"/><path d="M93,24.597h-1.489v-1.499c0-1.104-0.896-2-2-2s-2,0.896-2,2v1.499h-1.499c-1.104,0-2,0.896-2,2s0.896,2,2,2h1.499v1.489   c0,1.104,0.896,2,2,2s2-0.896,2-2v-1.489H93c1.104,0,2-0.896,2-2S94.104,24.597,93,24.597z"/><path d="M7,79.116h1.499v1.489c0,1.104,0.896,2,2,2s2-0.896,2-2v-1.489h1.489c1.104,0,2-0.896,2-2s-0.896-2-2-2h-1.489v-1.499   c0-1.104-0.896-2-2-2s-2,0.896-2,2v1.499H7c-1.104,0-2,0.896-2,2S5.896,79.116,7,79.116z"/><path d="M29.438,79.25c1.104,0,2-0.896,2-2v-3.5c0-1.104-0.896-2-2-2s-2,0.896-2,2v3.5C27.438,78.354,28.333,79.25,29.438,79.25z"/><path d="M31.438,83.945v-0.861c0-1.104-0.896-2-2-2s-2,0.896-2,2v0.861c0,1.104,0.896,2,2,2S31.438,85.049,31.438,83.945z"/></g><text x="0" y="115" fill="#000000" font-size="5px" font-weight="bold" font-family="'Helvetica Neue', Helvetica, Arial-Unicode, Arial, Sans-serif">Created by Maxim Kulikov</text><text x="0" y="120" fill="#000000" font-size="5px" font-weight="bold" font-family="'Helvetica Neue', Helvetica, Arial-Unicode, Arial, Sans-serif">from the Noun Project</text></svg>